# xmcd CD database file
#
# Track frame offsets:
#	150
#	11086
#	23248
#	31781
#	49649
#	60839
#	71233
#	81862
#	93076
#	107538
#	117430
#
# Disc length: 1737 seconds
#
# Revision: 2
# Processed by: cddbd v1.5.2PL0 Copyright (c) Steve Scherf et al.
# Submitted via: CDex 1.51
#
DISCID=7f06c70b
DTITLE=The Howard Roberts Quartet - Jaunty-Jolly!
DYEAR=1900
DGENRE=Jazz
TTITLE0=I Will Wait For You
TTITLE1=So Nice (Summer Samba)
TTITLE2=Winchester Cathedral
TTITLE3=Sing No Blues
TTITLE4=Theme from the Sand Pebbles (And We Were Lovers)
TTITLE5=A Man and A Woman
TTITLE6=Music to Watch Girls By
TTITLE7=ALL
TTITLE8=If She Walked Into My Life
TTITLE9=The Face I Love
TTITLE10=Mercy, Mercy, Mercy
EXTD=
EXTT0=
EXTT1=
EXTT2=
EXTT3=
EXTT4=
EXTT5=
EXTT6=
EXTT7=
EXTT8=
EXTT9=
EXTT10=
PLAYORDER=
